<?xml version="1.0" encoding="UTF-8"?>
<svg xmlns="http://www.w3.org/2000/svg" viewBox="0 0 1080 1080">
  <defs>
    <style>
      .cls-1 {
        fill: #F4F6F9;
      }

      .cls-2 {
        fill: #01271b;
      }

      .cls-3 {
        fill: #f4f6f9;
      }

      .cls-4 {
        fill: #03b077;
      }
    </style>
  </defs>
  <g id="Layer_3" data-name="Layer 3">
    <rect class="cls-1" width="1080" height="1080"/>
    <rect class="cls-3" x="198.77" y="198.77" width="682.47" height="682.47" rx="241.79" ry="241.79" transform="translate(214.89 -151.02) rotate(19.8)"/>
  </g>
  <g id="Layer_5" data-name="Layer 5">
    <g>
      <g>
        <path class="cls-4" d="M793.24,556.86c-82.33-76.44-169.21-158.47-250.7-236.08-3.18-2.9-8.53-2.57-11.31,.66-1.18,1.24-4.61,4.72-5.85,6.01-55.97,59.41-114.62,118.16-176.14,171.74-90.17,78.14-93.4,79.51-11.92-12.07,54.32-60.84,113.84-118.77,173.93-173.98,1.7-1.57,5.11-4.91,6.82-6.43,5.06-4.67,11.99-7.22,18.79-7.14,6.99,.09,13.88,2.93,18.83,7.87,1.41,1.41,4.74,4.84,6.18,6.31,28.43,28.81,80.48,82.75,109.14,112.27,41.4,42.95,82.82,85.88,123.92,129.13,.46,.48,.44,1.24-.04,1.7-.46,.44-1.18,.44-1.64,.01h0Z"/>
        <path class="cls-4" d="M712.39,367.91c2.76,13.26,4.87,26.49,6.78,39.84,1.12,8.91,2.02,17.75,3.9,26.56,1.64,9.06-.22,17.91-3.4,26.56-1.73,4.43-3.82,8.85-7.28,13.28-.52,.66-1.48,.78-2.14,.26-3.64-4.36-5.76-9.07-7.54-13.54-2.42-6.57-4-13.06-4.03-19.92,.07-6.71,2.25-13.3,2.91-19.92,2.01-17.84,4.79-35.49,8.4-53.12,.25-1.24,2.15-1.29,2.4,0h0Z"/>
        <g>
          <rect class="cls-4" x="500.77" y="416.43" width="32.04" height="32.04" rx="5.74" ry="5.74"/>
          <rect class="cls-4" x="540.91" y="416.43" width="32.04" height="32.04" rx="5.74" ry="5.74"/>
          <rect class="cls-4" x="540.91" y="456.58" width="32.04" height="32.04" rx="5.74" ry="5.74"/>
          <rect class="cls-4" x="500.77" y="456.58" width="32.04" height="32.04" rx="5.74" ry="5.74"/>
        </g>
      </g>
      <g>
        <path class="cls-2" d="M399.61,735.62c-10.04,1.47-38.97,7.8-55.32,12.04-2.89,.75-5.76,1.62-8.09-.19-2.07-1.6-2.98-4.25-2.32-6.77,3.27-12.49,2.8-25.58-1.31-37.76-2.74-8.11-5.78-17.92-7.95-27.19-1.8-9.35-3.03-19.55-3.84-28.07-1.22-12.79-6.14-24.94-14.22-35-1.63-2.03-1.88-4.82-.65-7.13,1.37-2.56,4.27-3.97,7.15-3.51,8.55,1.38,17.31,.92,25.49-1.99,.37-.13,.75-.26,1.12-.4,38.75-13.67,79.14-22.29,120.1-25.63,.39-.03,.79-.06,1.18-.1,8.66-.69,16.84-3.85,24.08-8.59,2.45-1.61,5.67-1.5,7.96,.28h0c2.07,1.6,2.26,4.17,2.32,6.77,1.02,44.15,20.71,43.15,20.71,43.15-15.5-13.7-10.76-47.38-6.88-62.86,.78-3.12-.33-6.42-2.85-8.42h0c-2.8-2.22-6.71-2.38-9.67-.4-8.75,5.85-18.67,9.72-29.17,10.52-.48,.04-.96,.07-1.44,.11-49.68,3.9-98.63,14.34-145.57,31.07-.45,.16-.9,.32-1.36,.48-9.91,3.56-20.54,4.07-30.92,2.3-3.51-.6-7.01,1.14-8.66,4.31-1.48,2.86-1.16,6.32,.83,8.85,9.87,12.55,15.91,27.66,17.47,43.55,1.04,10.58,2.59,23.26,4.84,34.88,2.69,11.52,6.45,23.73,9.82,33.81,5.06,15.14,5.72,31.4,1.83,46.89h0c-.78,3.12,.33,6.42,2.85,8.42,2.85,2.26,6.84,2.38,9.82,.29,8.6-6.04,72.62-33.73,72.62-33.73Z"/>
        <path class="cls-2" d="M801.4,604.13s-.26,.36-.75,1.06c-.5,.69-1.21,1.75-2.21,3.08-.52,.66-1.09,1.39-1.72,2.2-.32,.4-.66,.82-1.01,1.26-.37,.42-.75,.86-1.14,1.32-.4,.46-.81,.94-1.23,1.43-.21,.25-.43,.5-.65,.75-.23,.25-.46,.5-.7,.75-.48,.51-.98,1.03-1.48,1.57-.51,.54-1.03,1.1-1.6,1.64-4.43,4.45-10.25,9.48-17.53,14.51-1.84,1.22-3.72,2.52-5.75,3.71-1.01,.6-2.01,1.25-3.07,1.84-1.05,.6-2.12,1.2-3.2,1.82-4.36,2.39-9.08,4.65-14.09,6.83-10.05,4.29-21.35,7.96-33.55,10.71-12.19,2.76-25.26,4.63-38.82,5.52-1.69,.11-3.4,.22-5.11,.29-.86,.04-1.71,.08-2.57,.12-.87,.02-1.75,.05-2.62,.07-1.67,.04-3.35,.09-5.03,.13-.85,.02-1.66,.05-2.54,.05-.87,0-1.75,0-2.62,0-1.75,0-3.51,0-5.27,0-.89,0-1.76,0-2.62-.03-.87-.02-1.74-.03-2.61-.05-1.74-.04-3.49-.07-5.24-.11-1.74-.06-3.49-.12-5.24-.19-14-.53-28.07-1.53-42.01-2.53-13.93-1.01-27.73-1.99-41.23-2.49-13.49-.5-26.68-.55-39.33,.22-1.53,.08-3.1,.22-4.66,.34-1.56,.11-3.11,.27-4.65,.42-1.54,.14-3.07,.34-4.6,.51-1.53,.16-3.03,.38-4.54,.58-6.01,.84-11.87,1.88-17.52,3.11-5.65,1.23-11.1,2.66-16.31,4.24-5.22,1.56-10.18,3.34-14.87,5.23-4.7,1.87-9.1,3.93-13.23,6.01-4.13,2.09-7.91,4.34-11.45,6.51-6.99,4.45-12.75,8.96-17.26,12.99-2.24,2.03-4.21,3.9-5.86,5.6-.42,.42-.82,.83-1.21,1.22-.37,.4-.73,.79-1.07,1.16-.69,.74-1.31,1.41-1.87,2.02-2.17,2.5-3.33,3.83-3.33,3.83,0,0,.19-.4,.56-1.17,.38-.77,.91-1.93,1.68-3.41,.4-.73,.85-1.55,1.34-2.44,.25-.45,.52-.92,.79-1.41,.29-.48,.6-.97,.92-1.49,.32-.52,.65-1.05,1-1.61,.17-.28,.35-.56,.53-.85,.19-.28,.38-.56,.58-.85,.4-.57,.81-1.17,1.23-1.78,.42-.61,.85-1.25,1.33-1.87,3.71-5.08,8.77-10.91,15.32-16.9,1.67-1.45,3.37-3,5.23-4.44,.46-.37,.92-.74,1.39-1.12,.23-.19,.47-.38,.7-.56,.24-.18,.48-.36,.72-.54,.97-.73,1.96-1.47,2.96-2.22,4.05-2.92,8.49-5.74,13.24-8.48,9.54-5.42,20.47-10.27,32.43-14.14,5.98-1.94,12.21-3.64,18.65-5.07,3.22-.72,6.49-1.37,9.81-1.94,1.66-.28,3.32-.58,5.01-.82,1.68-.25,3.36-.5,5.11-.71,13.55-1.69,27.57-2.31,41.69-2.21,14.12,.1,28.33,.91,42.38,1.92,14.05,1.03,27.95,2.24,41.53,3.17,1.7,.12,3.39,.23,5.08,.35,1.69,.1,3.37,.19,5.04,.29,.84,.05,1.68,.1,2.51,.15,.84,.05,1.67,.1,2.49,.13,1.64,.07,3.28,.14,4.91,.22,.82,.04,1.63,.08,2.45,.12,.81,.05,1.67,.05,2.51,.08,1.68,.05,3.36,.09,5.03,.14,.79,.02,1.59,.05,2.38,.07,.8,.01,1.61,.02,2.41,.03,1.61,.03,3.2,.03,4.79,.02,12.73-.02,25.01-.76,36.56-2.21,11.54-1.46,22.37-3.55,32.16-6.29,4.91-1.34,9.53-2.87,13.91-4.43,4.37-1.57,8.42-3.32,12.23-5.01,7.55-3.5,13.9-7.14,18.98-10.45,2.52-1.67,4.76-3.22,6.66-4.64,.48-.35,.94-.69,1.39-1.01,.43-.34,.84-.66,1.24-.97,.8-.62,1.52-1.18,2.17-1.69,2.55-2.11,3.91-3.24,3.91-3.24Z"/>
        <path class="cls-2" d="M723.52,722.19s-1.13,.5-3.26,1.45c-1.07,.46-2.36,1.07-3.96,1.65-1.58,.59-3.4,1.34-5.48,2.01-1.04,.33-2.14,.69-3.28,1.06-.58,.18-1.16,.37-1.77,.57-.61,.17-1.23,.34-1.87,.51-1.27,.35-2.6,.71-3.97,1.08-1.38,.34-2.83,.65-4.32,.99-5.96,1.29-12.78,2.46-20.28,3.12-7.5,.69-15.67,.98-24.3,.75-8.63-.23-17.72-.97-27.05-2.26-.58-.08-1.17-.16-1.75-.23l-.44-.06-.48-.07-.87-.14c-1.16-.18-2.32-.37-3.48-.55-1.16-.19-2.33-.38-3.5-.57-1.18-.22-2.37-.43-3.56-.65-1.19-.22-2.39-.44-3.59-.66-.6-.11-1.2-.22-1.8-.33-.6-.12-1.19-.24-1.79-.36-2.38-.5-4.78-.99-7.18-1.49-9.6-2.05-19.25-4.45-28.87-6.84-9.61-2.44-19.18-4.9-28.59-7.23-4.71-1.13-9.38-2.27-14.01-3.32-1.16-.26-2.31-.53-3.46-.79-1.15-.24-2.3-.49-3.44-.73-2.29-.47-4.55-1-6.81-1.42-2.25-.43-4.49-.9-6.71-1.3-2.22-.38-4.42-.76-6.6-1.14-1.09-.21-2.17-.35-3.25-.51-1.08-.16-2.15-.32-3.22-.48-1.06-.16-2.1-.31-3.15-.46-1.07-.13-2.13-.27-3.19-.4-.53-.07-1.05-.13-1.57-.2-.51-.05-1.03-.11-1.54-.16-1.02-.11-2.03-.21-3.04-.32-2.03-.16-4.03-.36-6-.48-.99-.07-1.96-.13-2.93-.19-.97-.06-1.93-.09-2.88-.14-.95-.04-1.9-.09-2.83-.11-.94-.02-1.86-.04-2.78-.06-7.34-.15-14.08,.08-20.05,.54-5.97,.46-11.16,1.11-15.42,1.78-4.25,.71-7.6,1.34-9.87,1.85-2.27,.5-3.48,.77-3.48,.77,0,0,1.16-.44,3.34-1.27,1.09-.43,2.46-.86,4.06-1.41,1.6-.57,3.47-1.09,5.57-1.7,4.21-1.16,9.36-2.45,15.38-3.49,6.01-1.05,12.86-1.89,20.38-2.32,7.52-.41,15.68-.47,24.34,.12,1.06,.07,2.13,.15,3.21,.22,1.1,.11,2.2,.21,3.31,.32,1.1,.11,2.21,.22,3.32,.33,1.11,.11,2.24,.21,3.35,.36,2.24,.28,4.51,.57,6.8,.88,2.28,.32,4.58,.71,6.9,1.06,2.32,.35,4.64,.78,6.98,1.21,1.17,.22,2.35,.43,3.52,.65,1.17,.23,2.35,.47,3.53,.71,2.36,.49,4.74,.93,7.11,1.46,2.37,.53,4.76,1.06,7.15,1.59,9.56,2.16,19.18,4.61,28.78,7,4.8,1.23,9.58,2.43,14.35,3.61,2.38,.59,4.76,1.17,7.14,1.76,2.37,.57,4.74,1.13,7.09,1.69,4.72,1.06,9.4,2.15,14,3.1,1.15,.24,2.3,.48,3.45,.73,1.17,.22,2.33,.44,3.49,.66,1.16,.22,2.31,.45,3.46,.67l.86,.17,.38,.07,.42,.07c.57,.1,1.13,.2,1.7,.29,9.02,1.57,17.81,2.71,26.18,3.39,8.37,.69,16.31,.93,23.65,.81,7.34-.08,14.06-.64,19.99-1.33,1.48-.19,2.92-.34,4.31-.54,1.38-.22,2.71-.43,3.99-.64,.64-.1,1.27-.2,1.88-.29,.61-.12,1.21-.24,1.79-.36,1.17-.23,2.28-.46,3.34-.67,4.19-.96,7.51-1.72,9.74-2.41,2.24-.63,3.44-.96,3.44-.96Z"/>
      </g>
    </g>
  </g>
</svg>