<svg width="41" height="16" viewBox="0 0 41 16" fill="none" xmlns="http://www.w3.org/2000/svg">
<path d="M5.28125 10.0227V6.18182H6.04545V10.0227H5.28125ZM3.74432 8.48295V7.72159H7.58523V8.48295H3.74432ZM13.0305 11.0795C12.6404 11.0795 12.2919 11.0123 11.9851 10.8778C11.6802 10.7434 11.4387 10.5568 11.2607 10.3182C11.0845 10.0777 10.9898 9.79924 10.9766 9.48295H11.8686C11.88 9.6553 11.9377 9.80492 12.0419 9.93182C12.148 10.0568 12.2862 10.1534 12.4567 10.2216C12.6271 10.2898 12.8165 10.3239 13.0249 10.3239C13.254 10.3239 13.4567 10.2841 13.6328 10.2045C13.8108 10.125 13.95 10.0142 14.0504 9.87216C14.1508 9.72822 14.201 9.5625 14.201 9.375C14.201 9.17992 14.1508 9.00852 14.0504 8.8608C13.9519 8.71117 13.8071 8.59375 13.6158 8.50852C13.4264 8.4233 13.1972 8.38068 12.9283 8.38068H12.4368V7.66477H12.9283C13.1442 7.66477 13.3336 7.62595 13.4964 7.5483C13.6612 7.47064 13.79 7.36269 13.8828 7.22443C13.9756 7.08428 14.022 6.92045 14.022 6.73295C14.022 6.55303 13.9813 6.39678 13.8999 6.2642C13.8203 6.12973 13.7067 6.02462 13.5589 5.94886C13.4131 5.87311 13.2408 5.83523 13.0419 5.83523C12.8525 5.83523 12.6754 5.87027 12.5107 5.94034C12.3478 6.00852 12.2152 6.10701 12.1129 6.2358C12.0107 6.36269 11.9557 6.51515 11.9482 6.69318H11.0987C11.1082 6.37879 11.201 6.10227 11.3771 5.86364C11.5552 5.625 11.79 5.43845 12.0817 5.30398C12.3733 5.16951 12.6972 5.10227 13.0533 5.10227C13.4264 5.10227 13.7483 5.17519 14.0192 5.32102C14.2919 5.46496 14.5021 5.6572 14.6499 5.89773C14.7995 6.13826 14.8733 6.40152 14.8714 6.6875C14.8733 7.01326 14.7824 7.28977 14.5987 7.51705C14.4169 7.74432 14.1745 7.89678 13.8714 7.97443V8.01989C14.2578 8.0786 14.5571 8.23201 14.7692 8.48011C14.9832 8.72822 15.0893 9.03598 15.0874 9.40341C15.0893 9.72348 15.0002 10.0104 14.8203 10.2642C14.6423 10.518 14.3989 10.7178 14.0902 10.8636C13.7815 11.0076 13.4283 11.0795 13.0305 11.0795ZM18.2898 11V6.63636H19.1051V7.34659H19.1591C19.25 7.10606 19.3987 6.91856 19.6051 6.78409C19.8116 6.64773 20.0587 6.57955 20.3466 6.57955C20.6383 6.57955 20.8826 6.64773 21.0795 6.78409C21.2784 6.92045 21.4252 7.10795 21.5199 7.34659H21.5653C21.6695 7.11364 21.8352 6.92803 22.0625 6.78977C22.2898 6.64962 22.5606 6.57955 22.875 6.57955C23.2708 6.57955 23.5938 6.7036 23.8438 6.9517C24.0956 7.19981 24.2216 7.57386 24.2216 8.07386V11H23.3722V8.15341C23.3722 7.85795 23.2917 7.64394 23.1307 7.51136C22.9697 7.37879 22.7775 7.3125 22.554 7.3125C22.2775 7.3125 22.0625 7.39773 21.9091 7.56818C21.7557 7.73674 21.679 7.9536 21.679 8.21875V11H20.8324V8.09943C20.8324 7.86269 20.7585 7.67235 20.6108 7.52841C20.4631 7.38447 20.2708 7.3125 20.0341 7.3125C19.8731 7.3125 19.7244 7.35511 19.5881 7.44034C19.4536 7.52367 19.3447 7.64015 19.2614 7.78977C19.1799 7.93939 19.1392 8.11269 19.1392 8.30966V11H18.2898ZM27.1982 11.0881C26.7891 11.0881 26.4321 10.9943 26.1271 10.8068C25.8222 10.6193 25.5855 10.357 25.4169 10.0199C25.2483 9.68277 25.1641 9.28883 25.1641 8.83807C25.1641 8.38542 25.2483 7.98958 25.4169 7.65057C25.5855 7.31155 25.8222 7.0483 26.1271 6.8608C26.4321 6.6733 26.7891 6.57955 27.1982 6.57955C27.6072 6.57955 27.9643 6.6733 28.2692 6.8608C28.5741 7.0483 28.8108 7.31155 28.9794 7.65057C29.148 7.98958 29.2322 8.38542 29.2322 8.83807C29.2322 9.28883 29.148 9.68277 28.9794 10.0199C28.8108 10.357 28.5741 10.6193 28.2692 10.8068C27.9643 10.9943 27.6072 11.0881 27.1982 11.0881ZM27.201 10.375C27.4661 10.375 27.6858 10.3049 27.8601 10.1648C28.0343 10.0246 28.1631 9.83807 28.2464 9.60511C28.3317 9.37216 28.3743 9.11553 28.3743 8.83523C28.3743 8.55682 28.3317 8.30114 28.2464 8.06818C28.1631 7.83333 28.0343 7.64489 27.8601 7.50284C27.6858 7.3608 27.4661 7.28977 27.201 7.28977C26.9339 7.28977 26.7124 7.3608 26.5362 7.50284C26.362 7.64489 26.2322 7.83333 26.147 8.06818C26.0637 8.30114 26.022 8.55682 26.022 8.83523C26.022 9.11553 26.0637 9.37216 26.147 9.60511C26.2322 9.83807 26.362 10.0246 26.5362 10.1648C26.7124 10.3049 26.9339 10.375 27.201 10.375ZM30.1804 11V6.63636H31.0014V7.32955H31.0469C31.1264 7.0947 31.2666 6.91004 31.4673 6.77557C31.67 6.6392 31.8991 6.57102 32.1548 6.57102C32.2079 6.57102 32.2704 6.57292 32.3423 6.5767C32.4162 6.58049 32.474 6.58523 32.5156 6.59091V7.40341C32.4815 7.39394 32.4209 7.38352 32.3338 7.37216C32.2467 7.3589 32.1596 7.35227 32.0724 7.35227C31.8717 7.35227 31.6927 7.39489 31.5355 7.48011C31.3802 7.56345 31.2571 7.67992 31.1662 7.82955C31.0753 7.97727 31.0298 8.14583 31.0298 8.33523V11H30.1804ZM34.9751 11.0881C34.5452 11.0881 34.175 10.9962 33.8643 10.8125C33.5556 10.6269 33.317 10.3665 33.1484 10.0312C32.9818 9.69413 32.8984 9.29924 32.8984 8.84659C32.8984 8.39962 32.9818 8.00568 33.1484 7.66477C33.317 7.32386 33.5518 7.05777 33.853 6.86648C34.156 6.67519 34.5102 6.57955 34.9155 6.57955C35.1617 6.57955 35.4003 6.62027 35.6314 6.7017C35.8625 6.78314 36.0698 6.91098 36.2536 7.08523C36.4373 7.25947 36.5821 7.4858 36.6882 7.7642C36.7943 8.04072 36.8473 8.37689 36.8473 8.77273V9.07386H33.3786V8.4375H36.0149C36.0149 8.21402 35.9695 8.0161 35.8786 7.84375C35.7876 7.66951 35.6598 7.5322 35.495 7.43182C35.3321 7.33144 35.1409 7.28125 34.9212 7.28125C34.6825 7.28125 34.4742 7.33996 34.2962 7.45739C34.12 7.57292 33.9837 7.72443 33.8871 7.91193C33.7924 8.09754 33.745 8.29924 33.745 8.51705V9.0142C33.745 9.30587 33.7962 9.55398 33.8984 9.75852C34.0026 9.96307 34.1475 10.1193 34.3331 10.2273C34.5187 10.3333 34.7356 10.3864 34.9837 10.3864C35.1446 10.3864 35.2914 10.3636 35.424 10.3182C35.5566 10.2708 35.6712 10.2008 35.7678 10.108C35.8643 10.0152 35.9382 9.90057 35.9893 9.7642L36.7933 9.90909C36.7289 10.1458 36.6134 10.3532 36.4467 10.5312C36.282 10.7074 36.0746 10.8447 35.8246 10.9432C35.5765 11.0398 35.2933 11.0881 34.9751 11.0881Z" fill="#8A93A6"/>
<rect x="0.5" y="0.5" width="40" height="15" rx="7.5" stroke="#E4E9ED"/>
</svg>
