<svg width="57" height="10" viewBox="0 0 57 10" fill="none" xmlns="http://www.w3.org/2000/svg">
<path d="M55.793 3.75H52.9199L52.0469 1.14453C52.0039 1.01758 51.8848 0.9375 51.75 0.9375C51.6152 0.9375 51.4961 1.01758 51.4531 1.14453L50.5801 3.75H47.6875C47.5156 3.75 47.375 3.89062 47.375 4.0625C47.375 4.08008 47.377 4.09961 47.3809 4.11523C47.3848 4.18359 47.416 4.25977 47.5117 4.33594L49.873 6L48.9668 8.63477C48.9219 8.76172 48.9668 8.9043 49.0742 8.98633C49.1309 9.02734 49.1836 9.0625 49.25 9.0625C49.3145 9.0625 49.3906 9.0293 49.4453 8.99219L51.75 7.34961L54.0547 8.99219C54.1094 9.03125 54.1855 9.0625 54.25 9.0625C54.3164 9.0625 54.3691 9.0293 54.4238 8.98633C54.5332 8.9043 54.5762 8.76367 54.5312 8.63477L53.625 6L55.9668 4.32031L56.0234 4.27148C56.0742 4.2168 56.125 4.14258 56.125 4.0625C56.125 3.89062 55.9648 3.75 55.793 3.75ZM54.8672 4.4375L53.3086 5.55664C53.1133 5.69727 53.0313 5.95117 53.1094 6.17773L53.6973 7.89062C53.7227 7.96289 53.6406 8.02344 53.5781 7.98047L52.0664 6.90234L52.0645 6.90039C51.8691 6.76367 51.75 6.54297 51.75 6.30469V2.21289C51.75 2.16992 51.8105 2.16016 51.8242 2.20117L52.4023 3.92383C52.4766 4.14648 52.6855 4.29688 52.9199 4.29688H54.8203C54.8965 4.29688 54.9277 4.39453 54.8672 4.4375Z" fill="#03B077"/>
<path d="M21.043 3.75H18.1699L17.2969 1.14453C17.2539 1.01758 17.1348 0.9375 17 0.9375C16.8652 0.9375 16.7461 1.01758 16.7031 1.14453L15.8301 3.75H12.9375C12.7656 3.75 12.625 3.89062 12.625 4.0625C12.625 4.08008 12.627 4.09961 12.6309 4.11523C12.6348 4.18359 12.666 4.25977 12.7617 4.33594L15.123 6L14.2168 8.63477C14.1719 8.76172 14.2168 8.9043 14.3242 8.98633C14.3809 9.02734 14.4336 9.0625 14.5 9.0625C14.5645 9.0625 14.6406 9.0293 14.6953 8.99219L17 7.34961L19.3047 8.99219C19.3594 9.03125 19.4355 9.0625 19.5 9.0625C19.5664 9.0625 19.6191 9.0293 19.6738 8.98633C19.7832 8.9043 19.8262 8.76367 19.7812 8.63477L18.875 6L21.2168 4.32031L21.2734 4.27148C21.3242 4.2168 21.375 4.14258 21.375 4.0625C21.375 3.89062 21.2148 3.75 21.043 3.75Z" fill="#03B077"/>
<path d="M32.418 3.75H29.5449L28.6719 1.14453C28.6289 1.01758 28.5098 0.9375 28.375 0.9375C28.2402 0.9375 28.1211 1.01758 28.0781 1.14453L27.2051 3.75H24.3125C24.1406 3.75 24 3.89062 24 4.0625C24 4.08008 24.002 4.09961 24.0059 4.11523C24.0098 4.18359 24.041 4.25977 24.1367 4.33594L26.498 6L25.5918 8.63477C25.5469 8.76172 25.5918 8.9043 25.6992 8.98633C25.7559 9.02734 25.8086 9.0625 25.875 9.0625C25.9395 9.0625 26.0156 9.0293 26.0703 8.99219L28.375 7.34961L30.6797 8.99219C30.7344 9.03125 30.8105 9.0625 30.875 9.0625C30.9414 9.0625 30.9941 9.0293 31.0488 8.98633C31.1582 8.9043 31.2012 8.76367 31.1562 8.63477L30.25 6L32.5918 4.32031L32.6484 4.27148C32.6992 4.2168 32.75 4.14258 32.75 4.0625C32.75 3.89062 32.5898 3.75 32.418 3.75Z" fill="#03B077"/>
<path d="M9.04297 3.75H6.16992L5.29688 1.14453C5.25391 1.01758 5.13477 0.9375 5 0.9375C4.86523 0.9375 4.74609 1.01758 4.70313 1.14453L3.83008 3.75H0.9375C0.765625 3.75 0.625 3.89062 0.625 4.0625C0.625 4.08008 0.626953 4.09961 0.630859 4.11523C0.634766 4.18359 0.666016 4.25977 0.761719 4.33594L3.12305 6L2.2168 8.63477C2.17188 8.76172 2.2168 8.9043 2.32422 8.98633C2.38086 9.02734 2.43359 9.0625 2.5 9.0625C2.56445 9.0625 2.64063 9.0293 2.69531 8.99219L5 7.34961L7.30469 8.99219C7.35937 9.03125 7.43555 9.0625 7.5 9.0625C7.56641 9.0625 7.61914 9.0293 7.67383 8.98633C7.7832 8.9043 7.82617 8.76367 7.78125 8.63477L6.875 6L9.2168 4.32031L9.27344 4.27148C9.32422 4.2168 9.375 4.14258 9.375 4.0625C9.375 3.89062 9.21484 3.75 9.04297 3.75Z" fill="#03B077"/>
<path d="M43.793 3.75H40.9199L40.0469 1.14453C40.0039 1.01758 39.8848 0.9375 39.75 0.9375C39.6152 0.9375 39.4961 1.01758 39.4531 1.14453L38.5801 3.75H35.6875C35.5156 3.75 35.375 3.89062 35.375 4.0625C35.375 4.08008 35.377 4.09961 35.3809 4.11523C35.3848 4.18359 35.416 4.25977 35.5117 4.33594L37.873 6L36.9668 8.63477C36.9219 8.76172 36.9668 8.9043 37.0742 8.98633C37.1309 9.02734 37.1836 9.0625 37.25 9.0625C37.3145 9.0625 37.3906 9.0293 37.4453 8.99219L39.75 7.34961L42.0547 8.99219C42.1094 9.03125 42.1855 9.0625 42.25 9.0625C42.3164 9.0625 42.3691 9.0293 42.4238 8.98633C42.5332 8.9043 42.5762 8.76367 42.5312 8.63477L41.625 6L43.9668 4.32031L44.0234 4.27148C44.0742 4.2168 44.125 4.14258 44.125 4.0625C44.125 3.89062 43.9648 3.75 43.793 3.75Z" fill="#03B077"/>
</svg>
