<svg width="38" height="16" viewBox="0 0 38 16" fill="none" xmlns="http://www.w3.org/2000/svg">
<circle cx="8" cy="8" r="5" fill="#D9D9D9"/>
<path d="M10.884 7.26368C10.9037 7.2446 10.919 7.22149 10.9288 7.19595C10.9387 7.1704 10.9429 7.14302 10.9411 7.1157C10.9394 7.08837 10.9317 7.06175 10.9187 7.03766C10.9057 7.01358 10.8876 6.9926 10.8657 6.97618C10.0329 6.37069 9.02932 6.04529 7.99967 6.04688C6.92897 6.04688 5.93835 6.39141 5.13366 6.97618C5.11172 6.99257 5.0936 7.01352 5.08054 7.03759C5.06749 7.06166 5.0598 7.08828 5.05802 7.11561C5.05624 7.14293 5.0604 7.17032 5.07022 7.19588C5.08004 7.22144 5.09529 7.24457 5.11491 7.26368C5.14905 7.2973 5.19401 7.31772 5.2418 7.3213C5.28958 7.32487 5.33708 7.31138 5.37585 7.28321C6.13957 6.73203 7.05783 6.43606 7.99967 6.43751C8.97897 6.43751 9.88522 6.75079 10.6231 7.28282C10.7032 7.34063 10.8145 7.3336 10.884 7.26368Z" fill="#5C6173"/>
<path d="M10.0426 8.10586C10.0627 8.08644 10.0782 8.06278 10.0881 8.0366C10.0979 8.01042 10.1018 7.98238 10.0995 7.95451C10.0971 7.92664 10.0886 7.89964 10.0745 7.87548C10.0604 7.85133 10.0411 7.83061 10.018 7.81485C9.41733 7.42469 8.71622 7.21758 7.99999 7.21875C7.25585 7.21875 6.56249 7.4375 5.98203 7.81485C5.9588 7.83052 5.93939 7.8512 5.92521 7.87536C5.91103 7.89952 5.90244 7.92655 5.90008 7.95447C5.89772 7.98238 5.90165 8.01047 5.91157 8.03667C5.92149 8.06287 5.93716 8.08652 5.95742 8.10586C5.9907 8.13835 6.03404 8.15856 6.08031 8.16317C6.12659 8.16778 6.17306 8.15653 6.2121 8.13126C6.74571 7.78948 7.36632 7.60833 7.99999 7.60938C8.63353 7.6084 9.254 7.78955 9.7875 8.13126C9.86796 8.18282 9.975 8.17344 10.0426 8.10586ZM9.18984 8.9586C9.27812 8.87032 9.2621 8.72227 9.15078 8.66563C8.79433 8.48424 8.39994 8.38999 7.99999 8.39063C7.58593 8.39063 7.19453 8.48985 6.84921 8.66563C6.73789 8.72227 6.72187 8.87032 6.81015 8.9586L6.81601 8.96446C6.87851 9.02696 6.97499 9.03868 7.05468 8.99961C7.34891 8.85541 7.67233 8.78071 7.99999 8.78125C8.33906 8.78125 8.66015 8.85977 8.94531 9.00001C9.0246 9.03907 9.12109 9.02735 9.18359 8.96446L9.18984 8.9586ZM8.41406 9.73438C8.49062 9.65782 8.4914 9.53125 8.39843 9.47657C8.27792 9.40483 8.14024 9.36704 7.99999 9.36719C7.85975 9.36704 7.72207 9.40483 7.60156 9.47657C7.50859 9.53125 7.50937 9.65782 7.58593 9.73438L7.86171 10.0102C7.89834 10.0468 7.94801 10.0673 7.9998 10.0673C8.05159 10.0673 8.10126 10.0468 8.13789 10.0102L8.41406 9.73438Z" fill="#5C6173"/>
<path d="M15.7784 11L14.1648 5.18182H15.0881L16.2216 9.6875H16.2756L17.4545 5.18182H18.3693L19.5483 9.69034H19.6023L20.733 5.18182H21.6591L20.0426 11H19.1591L17.9347 6.64205H17.8892L16.6648 11H15.7784ZM22.3913 11V6.63636H23.2408V11H22.3913ZM22.8203 5.96307C22.6726 5.96307 22.5457 5.91383 22.4396 5.81534C22.3355 5.71496 22.2834 5.59564 22.2834 5.45739C22.2834 5.31723 22.3355 5.19792 22.4396 5.09943C22.5457 4.99905 22.6726 4.94886 22.8203 4.94886C22.968 4.94886 23.094 4.99905 23.1982 5.09943C23.3042 5.19792 23.3572 5.31723 23.3572 5.45739C23.3572 5.59564 23.3042 5.71496 23.1982 5.81534C23.094 5.91383 22.968 5.96307 22.8203 5.96307ZM26.9545 8.1733V8.90909H24.375V8.1733H26.9545ZM28.1548 11V5.18182H31.7628V5.9375H29.0327V7.71023H31.5043V8.46307H29.0327V11H28.1548ZM32.7741 11V6.63636H33.6236V11H32.7741ZM33.2031 5.96307C33.0554 5.96307 32.9285 5.91383 32.8224 5.81534C32.7183 5.71496 32.6662 5.59564 32.6662 5.45739C32.6662 5.31723 32.7183 5.19792 32.8224 5.09943C32.9285 4.99905 33.0554 4.94886 33.2031 4.94886C33.3509 4.94886 33.4768 4.99905 33.581 5.09943C33.687 5.19792 33.7401 5.31723 33.7401 5.45739C33.7401 5.59564 33.687 5.71496 33.581 5.81534C33.4768 5.91383 33.3509 5.96307 33.2031 5.96307Z" fill="#8A93A6"/>
<rect x="0.5" y="0.5" width="37" height="15" rx="7.5" stroke="#E4E9ED"/>
</svg>
