<svg width="24" height="25" viewBox="0 0 24 25" fill="none" xmlns="http://www.w3.org/2000/svg">
<circle cx="12" cy="12.5" r="12" fill="currentColor"/>
<path d="M13.5455 14.2881L12.3772 17.501C12.3485 17.578 12.297 17.6445 12.2295 17.6915C12.162 17.7385 12.0817 17.7636 11.9995 17.7636C11.9172 17.7636 11.837 17.7385 11.7695 17.6915C11.702 17.6445 11.6504 17.578 11.6218 17.501L10.4535 14.2881C10.4331 14.2328 10.4009 14.1825 10.3592 14.1407C10.3175 14.099 10.2672 14.0668 10.2118 14.0464L6.999 12.8781C6.9219 12.8495 6.85541 12.798 6.80845 12.7305C6.7615 12.663 6.73633 12.5827 6.73633 12.5005C6.73633 12.4182 6.7615 12.338 6.80845 12.2704C6.85541 12.2029 6.9219 12.1514 6.999 12.1228L10.2118 10.9545C10.2672 10.9341 10.3175 10.9019 10.3592 10.8602C10.4009 10.8184 10.4331 10.7682 10.4535 10.7128L11.6218 7.49997C11.6504 7.42288 11.702 7.35638 11.7695 7.30943C11.837 7.26247 11.9172 7.2373 11.9995 7.2373C12.0817 7.2373 12.162 7.26247 12.2295 7.30943C12.297 7.35638 12.3485 7.42288 12.3772 7.49997L13.5455 10.7128C13.5659 10.7682 13.598 10.8184 13.6398 10.8602C13.6815 10.9019 13.7318 10.9341 13.7872 10.9545L17 12.1228C17.0771 12.1514 17.1436 12.2029 17.1905 12.2704C17.2375 12.338 17.2626 12.4182 17.2626 12.5005C17.2626 12.5827 17.2375 12.663 17.1905 12.7305C17.1436 12.798 17.0771 12.8495 17 12.8781L13.7872 14.0464C13.7318 14.0668 13.6815 14.099 13.6398 14.1407C13.598 14.1825 13.5659 14.2328 13.5455 14.2881Z" fill="currentColor" stroke="white" stroke-width="2" stroke-linecap="round" stroke-linejoin="round"/>
</svg>
