<svg width="30" height="32" viewBox="0 0 30 32" fill="none" xmlns="http://www.w3.org/2000/svg">
<path d="M6.49951 0C8.70864 0 10.4995 1.79087 10.4995 4C10.4995 6.20913 8.70864 8 6.49951 8C4.29039 8 2.49951 6.20913 2.49951 4C2.49951 1.79087 4.29039 0 6.49951 0ZM9.49951 9H8.78951C7.37007 9.65269 5.69014 9.68087 4.20951 9H3.49951C1.84264 9 0.499512 10.3431 0.499512 12V20.5C0.499512 21.3284 1.17107 22 1.99951 22H2.99951V30.5C2.99951 31.3284 3.67107 32 4.49951 32H8.49951C9.32795 32 9.99951 31.3284 9.99951 30.5V22H10.9995C11.828 22 12.4995 21.3284 12.4995 20.5V12C12.4995 10.3431 11.1564 9 9.49951 9Z" fill="#5C6173"/>
<path d="M22.0001 0C24.2093 0 26.0001 1.79087 26.0001 4C26.0001 6.20913 24.2093 8 22.0001 8C19.791 8 18.0001 6.20913 18.0001 4C18.0001 1.79087 19.791 0 22.0001 0ZM29.4553 22.1362L26.4553 10.1362C26.3742 9.81166 26.1869 9.52356 25.9232 9.3177C25.6596 9.11183 25.3347 9.00001 25.0001 9H24.2901C22.8707 9.65269 21.1908 9.68087 19.7101 9H19.0001C18.6656 9.00001 18.3407 9.11183 18.077 9.3177C17.8134 9.52356 17.6261 9.81166 17.545 10.1362L14.545 22.1362C14.3086 23.0816 15.0241 24 16.0001 24H19.5001V30.5C19.5001 31.3284 20.1717 32 21.0001 32H23.0001C23.8286 32 24.5001 31.3284 24.5001 30.5V24H28.0001C28.9746 24 29.6921 23.0831 29.4553 22.1362Z" fill="#5C6173"/>
</svg>
