<svg width="32" height="32" viewBox="0 0 32 32" fill="none" xmlns="http://www.w3.org/2000/svg">
<path d="M26.5 6H24V7.5C24 7.775 23.775 8 23.5 8H22.5C22.225 8 22 7.775 22 7.5V6H10V7.5C10 7.775 9.775 8 9.5 8H8.5C8.225 8 8 7.775 8 7.5V6H5.5C4.125 6 3 7.125 3 8.5V25.5C3 26.875 4.125 28 5.5 28H26.5C27.875 28 29 26.875 29 25.5V8.5C29 7.125 27.875 6 26.5 6ZM27 24.75C27 25.4375 26.4375 26 25.75 26H6.25C5.5625 26 5 25.4375 5 24.75V13.5C5 13.225 5.225 13 5.5 13H26.5C26.775 13 27 13.225 27 13.5V24.75ZM10 4.5C10 4.225 9.775 4 9.5 4H8.5C8.225 4 8 4.225 8 4.5V6H10V4.5ZM24 4.5C24 4.225 23.775 4 23.5 4H22.5C22.225 4 22 4.225 22 4.5V6H24V4.5Z" fill="#000000"/>
</svg>
