<svg width="20" height="20" viewBox="0 0 20 20" fill="none" xmlns="http://www.w3.org/2000/svg">
<path d="M17.4303 7.96991C17.4743 7.86985 17.4982 7.76208 17.5005 7.65279C17.5029 7.54349 17.4837 7.4348 17.4439 7.33295C17.4042 7.23109 17.3448 7.13806 17.2692 7.05918C17.1935 6.9803 17.103 6.91712 17.0028 6.87325L6.10699 2.07658C5.27783 1.71158 4.25699 2.11908 3.90283 2.94491L2.06116 7.23991C1.8879 7.64618 1.8829 8.1046 2.04726 8.51455C2.21161 8.92451 2.5319 9.25251 2.93783 9.42658L7.96949 11.5832L6.93616 14.1666H3.33366V11.6666H1.66699V18.3332H3.33366V15.8332H6.93616C7.62199 15.8332 8.22949 15.4216 8.48283 14.7849L9.50116 12.2399L13.8387 14.0982C14.0407 14.1849 14.2687 14.1883 14.4732 14.1076C14.6777 14.0269 14.842 13.8687 14.9303 13.6674L15.1903 13.0757L16.6078 13.6424L18.2745 9.47575L16.9945 8.96491L17.4303 7.96991ZM13.7353 12.2416L3.59449 7.89575L5.43449 3.60241L15.5695 8.06408L13.7353 12.2416Z" fill="#8A93A6"/>
</svg>
