<svg width="24" height="24" viewBox="0 0 24 24" fill="none" xmlns="http://www.w3.org/2000/svg">
<path d="M21 1.50024C21.3978 1.50024 22 1.50024 22.5 2.00024C23 2.50024 23 3.10242 23 3.50024V15.5002C23 15.8981 23 16.5002 22.5 17.0002C22 17.5002 21.3978 17.5002 21 17.5002H17.25C16.7843 17.5002 16.3824 17.5323 15.9659 17.7406C15.5493 17.9489 15.2794 18.1277 15 18.5002L13.5 20.5002L12 22.5002L10.5 20.5002L9 18.5002C8.5 18.0002 8.36657 17.9489 7.95 17.7406C7.53343 17.5323 6.96574 17.5002 6.5 17.5002H3C2.60218 17.5002 2 17.5002 1.5 17.0002C1 16.5002 1 15.8981 1 15.5002V12.5002V9.50024V3.50024C1 3.10242 1 2.50024 1.5 2.00024C2 1.50024 2.5 1.50024 3 1.50024H12H21ZM3 0.500244C2.20435 0.500244 1.26261 0.737635 0.7 1.30024C0.137391 1.86285 0 2.70459 0 3.50024V15.5002C0 16.2959 0.137391 17.2376 0.7 17.8002C1.26261 18.3629 2.20435 18.5002 3 18.5002H6.75C6.98287 18.5002 7.21254 18.5545 7.42082 18.6586C7.6291 18.7627 7.81028 18.9139 7.95 19.1002L10.8 22.8997C10.9397 23.086 11.1209 23.2372 11.3292 23.3414C11.5375 23.4455 11.7671 23.4997 12 23.4997C12.2329 23.4997 12.4625 23.4455 12.6708 23.3414C12.8791 23.2372 13.0603 23.086 13.2 22.8997L16.05 19.1002C16.1897 18.9139 16.3709 18.7627 16.5792 18.6586C16.7875 18.5545 17.0171 18.5002 17.25 18.5002H21C21.7957 18.5002 22.6374 18.3629 23.2 17.8002C23.7626 17.2376 24 16.2959 24 15.5002V3.50024C24 2.70459 23.7626 1.86285 23.2 1.30025C22.6374 0.737637 21.7957 0.500244 21 0.500244H3Z" fill="#959CB0"/>
</svg>
