<svg width="23" height="25" viewBox="0 0 23 25" fill="none" xmlns="http://www.w3.org/2000/svg">
<path d="M4.5 0.5C6.15685 0.5 7.5 1.84316 7.5 3.5C7.5 5.15684 6.15685 6.5 4.5 6.5C2.84316 6.5 1.5 5.15684 1.5 3.5C1.5 1.84316 2.84316 0.5 4.5 0.5ZM6.75 7.25H6.2175C5.15292 7.73952 3.89297 7.76066 2.7825 7.25H2.25C1.00734 7.25 0 8.25734 0 9.5V15.875C0 16.4963 0.503672 17 1.125 17H1.875V23.375C1.875 23.9963 2.37867 24.5 3 24.5H6C6.62133 24.5 7.125 23.9963 7.125 23.375V17H7.875C8.49633 17 9 16.4963 9 15.875V9.5C9 8.25734 7.99266 7.25 6.75 7.25Z" fill="#5C6173"/>
<path d="M16.6255 0.5C18.2823 0.5 19.6255 1.84316 19.6255 3.5C19.6255 5.15684 18.2823 6.5 16.6255 6.5C14.9686 6.5 13.6255 5.15684 13.6255 3.5C13.6255 1.84316 14.9686 0.5 16.6255 0.5ZM22.2169 17.1021L19.9669 8.10214C19.906 7.85874 19.7656 7.64267 19.5678 7.48827C19.3701 7.33387 19.1264 7.25 18.8755 7.25H18.343C17.2784 7.73952 16.0184 7.76066 14.908 7.25H14.3755C14.1246 7.25 13.8809 7.33387 13.6831 7.48827C13.4854 7.64267 13.3449 7.85874 13.2841 8.10214L11.0341 17.1021C10.8568 17.8112 11.3934 18.5 12.1255 18.5H14.7505V23.375C14.7505 23.9963 15.2541 24.5 15.8755 24.5H17.3755C17.9968 24.5 18.5005 23.9963 18.5005 23.375V18.5H21.1255C21.8563 18.5 22.3944 17.8123 22.2169 17.1021Z" fill="#5C6173"/>
</svg>
