<svg width="24" height="24" viewBox="0 0 24 24" fill="none" xmlns="http://www.w3.org/2000/svg">
<mask id="mask0_1161_6296" style="mask-type:luminance" maskUnits="userSpaceOnUse" x="0" y="0" width="24" height="24">
<path d="M24 0H0V24H24V0Z" fill="white"/>
</mask>
<g mask="url(#mask0_1161_6296)">
<path d="M15.6775 23.0848C15.6775 23.0848 14.7562 23.0406 14.7562 22.0156V18.5951C14.7562 18.5951 14.7663 17.7545 13.7269 17.7545H10.2124C10.2124 17.7545 9.44489 17.7545 9.45389 18.5951V22.0156C9.45389 23.0656 8.5058 23.0848 8.5058 23.0848H6.51562C6.51562 23.0848 1.73438 22.7704 1.73438 18.5951V9.55387C1.73438 9.55387 1.72927 8.3849 4.15823 6.6906C4.26848 6.58851 10.867 1.65426 10.867 1.65426C10.867 1.65426 11.9905 0.782853 13.3185 1.65426C14.6466 2.52567 19.7423 6.6906 19.7423 6.6906C22.2144 8.38499 22.2656 9.55387 22.2656 9.55387V18.5951C22.2656 18.5951 22.265 23.0848 17.4844 23.0848H15.6775Z" fill="#03B077"/>
</g>
</svg>
