<svg width="12" height="13" viewBox="0 0 12 13" fill="none" xmlns="http://www.w3.org/2000/svg">
<path d="M4.5 6C4.5 6.39782 4.65804 6.77936 4.93934 7.06066C5.22064 7.34196 5.60218 7.5 6 7.5C6.39782 7.5 6.77936 7.34196 7.06066 7.06066C7.34196 6.77936 7.5 6.39782 7.5 6C7.5 5.60218 7.34196 5.22064 7.06066 4.93934C6.77936 4.65804 6.39782 4.5 6 4.5C5.60218 4.5 5.22064 4.65804 4.93934 4.93934C4.65804 5.22064 4.5 5.60218 4.5 6Z" stroke="#5C6173" stroke-linecap="round" stroke-linejoin="round"/>
<path d="M8.8285 8.8286L6.707 10.9501C6.51949 11.1374 6.26529 11.2426 6.00025 11.2426C5.73521 11.2426 5.48101 11.1374 5.2935 10.9501L3.1715 8.8286C2.61211 8.26918 2.23117 7.55645 2.07685 6.78053C1.92252 6.00461 2.00175 5.20036 2.3045 4.46946C2.60726 3.73857 3.11995 3.11387 3.77774 2.67435C4.43553 2.23483 5.20889 2.00024 6 2.00024C6.79112 2.00024 7.56447 2.23483 8.22226 2.67435C8.88005 3.11387 9.39274 3.73857 9.6955 4.46946C9.99826 5.20036 10.0775 6.00461 9.92316 6.78053C9.76883 7.55645 9.38789 8.26918 8.8285 8.8286Z" stroke="#5C6173" stroke-linecap="round" stroke-linejoin="round"/>
</svg>
