<svg width="24" height="24" viewBox="0 0 24 24" fill="none" xmlns="http://www.w3.org/2000/svg">
<path d="M9.5 3.42857C9.5 2.78447 9.76339 2.16676 10.2322 1.71131C10.7011 1.25587 11.337 1 12 1C12.663 1 13.2989 1.25587 13.7678 1.71131C14.2366 2.16676 14.5 2.78447 14.5 3.42857C15.9355 4.08796 17.1593 5.1144 18.0401 6.39786C18.9209 7.68133 19.4255 9.17345 19.5 10.7143V14.3571C19.5941 15.1121 19.8693 15.835 20.3035 16.4677C20.7377 17.1004 21.3188 17.6253 22 18H2C2.68117 17.6253 3.26226 17.1004 3.69648 16.4677C4.13071 15.835 4.40593 15.1121 4.5 14.3571V10.7143C4.57445 9.17345 5.07913 7.68133 5.95994 6.39786C6.84075 5.1144 8.06449 4.08796 9.5 3.42857Z" stroke="#959CB0" stroke-linecap="round" stroke-linejoin="round"/>
<path d="M8 18V19.25C8 20.2446 8.42143 21.1984 9.17157 21.9017C9.92172 22.6049 10.9391 23 12 23C13.0609 23 14.0783 22.6049 14.8284 21.9017C15.5786 21.1984 16 20.2446 16 19.25V18" stroke="#959CB0" stroke-linecap="round" stroke-linejoin="round"/>
</svg>
