<svg width="24" height="24" viewBox="0 0 24 24" fill="none" xmlns="http://www.w3.org/2000/svg">
<g clip-path="url(#clip0_2221_3853)">
<mask id="mask0_2221_3853" style="mask-type:luminance" maskUnits="userSpaceOnUse" x="0" y="0" width="24" height="24">
<path d="M24 0H0V24H24V0Z" fill="white"/>
</mask>
<g mask="url(#mask0_2221_3853)">
<path d="M12.1396 22.7772C11.9614 22.7772 11.7857 22.7759 11.6167 22.7735C10.4735 22.7566 9.33202 22.6759 8.19775 22.5318C7.29232 22.4165 6.39672 22.2612 5.53572 22.07C4.76983 21.9 4.17359 21.7325 3.80829 21.6219C3.41267 21.5021 3.19507 21.4214 3.19301 21.4206C3.1216 21.3989 3.05208 21.3715 2.98512 21.3385C2.81934 21.2589 2.66544 21.1566 2.52785 21.0345C2.33537 20.8636 2.17977 20.6553 2.07054 20.4222C1.92773 20.1059 1.85673 19.7619 1.86265 19.415C1.8814 19.1083 2.01053 18.8277 2.24702 18.5809C2.46849 18.3611 2.72816 18.1835 3.01329 18.0568C3.2554 17.9448 3.50664 17.8539 3.76428 17.7849C3.96631 17.7302 4.10177 17.7073 4.1029 17.7071C4.11194 17.7057 5.02511 17.5685 6.47908 17.4329C7.33267 17.3532 8.20286 17.2899 9.0655 17.2444C10.1436 17.1875 11.2127 17.1587 12.2429 17.1587C14.8657 17.1587 17.2564 17.3432 19.3487 17.7072C19.8172 17.8211 20.2764 17.9708 20.7221 18.155C21.1226 18.3243 21.444 18.5047 21.6768 18.6913C21.968 18.9246 22.1215 19.1681 22.1329 19.4152C22.1359 19.4804 22.1397 19.5452 22.1433 19.6078C22.1582 19.7951 22.1617 19.9831 22.1538 20.1709C22.1468 20.3482 22.1046 20.5223 22.0295 20.6831C21.8551 21.0423 21.4797 21.3142 20.8483 21.539C20.4256 21.764 19.8433 21.9639 19.1177 22.1338C18.369 22.3024 17.6116 22.4296 16.8489 22.5149C16.0918 22.6045 15.2688 22.6727 14.4026 22.7177C13.6498 22.7568 12.8674 22.7775 12.14 22.7775L12.1396 22.7772ZM6.95328 18.214C5.71892 18.3022 4.9489 18.3917 4.9413 18.3926C4.60968 18.4412 4.28349 18.5216 3.96724 18.6326C3.72107 18.7149 3.48978 18.8363 3.2823 18.9922C3.07089 19.1615 2.95526 19.3541 2.93867 19.5644C2.93867 20.1473 3.26027 20.4664 3.53009 20.6314C3.71181 20.741 3.91235 20.8159 4.12146 20.8521C4.12915 20.8545 4.90394 21.0962 6.21878 21.3418C8.01343 21.6722 9.83305 21.8484 11.6577 21.8686C11.7984 21.8701 11.94 21.8709 12.0785 21.8709C14.7451 21.8709 17.2297 21.5743 19.6744 20.9642C20.2902 20.7106 20.6128 20.559 20.7803 20.3841C20.9468 20.2102 20.9654 20.0122 20.9991 19.6529L21.0003 19.6402C20.9996 19.6285 20.9994 19.6168 20.9992 19.6052C21.0027 19.5568 20.9933 19.5084 20.9718 19.465C20.9502 19.4215 20.9175 19.3846 20.8768 19.3582C20.7988 19.262 20.5826 19.134 20.4028 19.0499C20.0479 18.8828 19.68 18.7449 19.3028 18.6374C18.971 18.5381 18.632 18.4649 18.2889 18.4184C16.3846 18.1643 14.2308 18.0354 11.8873 18.0355C9.87494 18.0354 8.09351 18.1325 6.95328 18.214ZM10.5725 15.6928C10.1096 15.598 9.65724 15.4575 9.22202 15.2735C8.79413 15.0923 8.38479 14.8702 7.99971 14.6101C7.61758 14.3517 7.26098 14.0575 6.93476 13.7314C6.60865 13.4051 6.31442 13.0485 6.05608 12.6664C5.79599 12.2813 5.57379 11.872 5.39261 11.444C5.20859 11.0087 5.06815 10.5563 4.97332 10.0933C4.87599 9.61603 4.827 9.13017 4.82711 8.64308C4.827 8.15597 4.87599 7.6701 4.97332 7.19281C5.06815 6.72984 5.2086 6.2774 5.39261 5.84211C5.57378 5.41419 5.79598 5.00483 6.05608 4.61975C6.31442 4.23762 6.60865 3.88101 6.93476 3.5548C7.26097 3.22867 7.61757 2.93443 7.99971 2.67608C8.38478 2.41602 8.79413 2.19386 9.22202 2.01271C9.65733 1.82871 10.1098 1.68826 10.5728 1.59341C11.05 1.49609 11.5358 1.44711 12.0228 1.4472C12.5099 1.44708 12.9958 1.49604 13.473 1.59336C13.936 1.6882 14.3885 1.82865 14.8238 2.01266C15.2517 2.19381 15.6611 2.41599 16.0461 2.67608C16.4283 2.93443 16.7849 3.22867 17.1111 3.5548C17.4372 3.881 17.7314 4.2376 17.9898 4.61975C18.2499 5.00483 18.4721 5.41419 18.6532 5.84211C18.8372 6.2774 18.9777 6.72984 19.0725 7.19281C19.1698 7.6701 19.2188 8.15597 19.2187 8.64308C19.2188 9.13017 19.1698 9.61603 19.0725 10.0933C18.9777 10.5563 18.8372 11.0087 18.6532 11.444C18.472 11.872 18.2499 12.2813 17.9898 12.6664C17.7314 13.0486 17.4372 13.4052 17.1111 13.7314C16.7849 14.0575 16.4283 14.3517 16.0461 14.6101C15.661 14.8702 15.2517 15.0924 14.8238 15.2735C14.3885 15.4576 13.936 15.598 13.473 15.6928C12.9958 15.7902 12.5099 15.8392 12.0228 15.839C11.5357 15.8392 11.0499 15.7902 10.5726 15.6928H10.5725ZM5.90955 8.64313C5.9114 10.2639 6.55607 11.8177 7.70213 12.9638C8.84819 14.1098 10.402 14.7544 12.0228 14.7562C15.3935 14.7562 18.1359 12.014 18.1359 8.64308C18.1341 7.02235 17.4894 5.46853 16.3434 4.3225C15.1974 3.17648 13.6435 2.53184 12.0228 2.53002C10.4021 2.53184 8.84822 3.17648 7.70218 4.32252C6.55614 5.46855 5.91148 7.02238 5.90964 8.64313H5.90955Z" fill="#959CB0"/>
</g>
</g>
<defs>
<clipPath id="clip0_2221_3853">
<rect width="24" height="24" fill="white"/>
</clipPath>
</defs>
</svg>
