<svg width="12" height="18" viewBox="0 0 12 18" fill="none" xmlns="http://www.w3.org/2000/svg">
<path d="M3.27246 4.09113C3.27246 3.63927 3.63878 3.27295 4.09064 3.27295C4.54252 3.27295 4.90882 3.63927 4.90882 4.09113V5.72749C4.90882 6.17936 4.54252 6.54568 4.09064 6.54568C3.63878 6.54568 3.27246 6.17936 3.27246 5.72749V4.09113Z" fill="currentColor"/>
<path d="M4.09064 9.81836C3.63878 9.81836 3.27246 10.1847 3.27246 10.6365V12.2729C3.27246 12.7248 3.63878 13.0911 4.09064 13.0911C4.54252 13.0911 4.90882 12.7248 4.90882 12.2729V10.6365C4.90882 10.1847 4.54252 9.81836 4.09064 9.81836Z" fill="currentColor"/>
<path fill-rule="evenodd" clip-rule="evenodd" d="M0 2.45455C0 1.09894 1.09894 0 2.45455 0H9C10.3556 0 11.4545 1.09894 11.4545 2.45455V15.5455C11.4545 16.9011 10.3556 18 9 18H2.45455C1.09894 18 0 16.9011 0 15.5455V2.45455ZM2.45455 1.63636H9C9.45188 1.63636 9.81818 2.00268 9.81818 2.45455V7.36364H1.63636V2.45455C1.63636 2.00268 2.00268 1.63636 2.45455 1.63636ZM1.63636 9H9.81818V15.5455C9.81818 15.9973 9.45188 16.3636 9 16.3636H2.45455C2.00268 16.3636 1.63636 15.9973 1.63636 15.5455V9Z" fill="currentColor"/>
</svg>
