<svg width="20" height="20" viewBox="0 0 20 20" fill="none" xmlns="http://www.w3.org/2000/svg">
<path d="M11.875 12.8572C11.7514 12.8572 11.6305 12.8991 11.5278 12.9776C11.425 13.0561 11.3449 13.1676 11.2976 13.2981C11.2503 13.4286 11.2379 13.5723 11.262 13.7108C11.2861 13.8494 11.3456 13.9767 11.4331 14.0765C11.5205 14.1764 11.6318 14.2445 11.7531 14.272C11.8743 14.2996 12 14.2854 12.1142 14.2314C12.2284 14.1773 12.326 14.0858 12.3947 13.9683C12.4633 13.8508 12.5 13.7127 12.5 13.5715C12.5 13.382 12.4342 13.2004 12.3169 13.0664C12.1997 12.9324 12.0408 12.8572 11.875 12.8572ZM13.125 8.57151C13.0014 8.57151 12.8805 8.6134 12.7778 8.69188C12.675 8.77037 12.5949 8.88193 12.5476 9.01244C12.5003 9.14296 12.4879 9.28658 12.512 9.42514C12.5361 9.56369 12.5956 9.69097 12.6831 9.79086C12.7705 9.89075 12.8818 9.95878 13.0031 9.98634C13.1243 10.0139 13.25 9.99976 13.3642 9.9457C13.4784 9.89163 13.576 9.80008 13.6447 9.68262C13.7133 9.56516 13.75 9.42706 13.75 9.28579C13.75 9.09635 13.6842 8.91467 13.5669 8.78071C13.4497 8.64676 13.2908 8.57151 13.125 8.57151ZM14.375 11.4286C14.4986 11.4286 14.6195 11.3867 14.7222 11.3083C14.825 11.2298 14.9051 11.1182 14.9524 10.9877C14.9997 10.8572 15.0121 10.7136 14.988 10.575C14.9639 10.4364 14.9044 10.3092 14.8169 10.2093C14.7295 10.1094 14.6182 10.0414 14.4969 10.0138C14.3757 9.98623 14.25 10.0004 14.1358 10.0544C14.0216 10.1085 13.924 10.2001 13.8553 10.3175C13.7867 10.435 13.75 10.5731 13.75 10.7143C13.75 10.9038 13.8158 11.0855 13.9331 11.2194C14.0503 11.3534 14.2092 11.4286 14.375 11.4286ZM13.125 12.8572C13.2486 12.8572 13.3695 12.8153 13.4722 12.7368C13.575 12.6583 13.6551 12.5468 13.7024 12.4163C13.7497 12.2857 13.7621 12.1421 13.738 12.0036C13.7139 11.865 13.6544 11.7377 13.5669 11.6378C13.4795 11.5379 13.3682 11.4699 13.2469 11.4424C13.1257 11.4148 13 11.4289 12.8858 11.483C12.7716 11.5371 12.674 11.6286 12.6053 11.7461C12.5367 11.8635 12.5 12.0016 12.5 12.1429C12.5 12.3323 12.5658 12.514 12.6831 12.648C12.8003 12.7819 12.9592 12.8572 13.125 12.8572ZM11.875 10.0001C11.7514 10.0001 11.6305 10.042 11.5278 10.1204C11.425 10.1989 11.3449 10.3105 11.2976 10.441C11.2503 10.5715 11.2379 10.7151 11.262 10.8537C11.2861 10.9923 11.3456 11.1195 11.4331 11.2194C11.5205 11.3193 11.6318 11.3873 11.7531 11.4149C11.8743 11.4425 12 11.4283 12.1142 11.3743C12.2284 11.3202 12.326 11.2286 12.3947 11.1112C12.4633 10.9937 12.5 10.8556 12.5 10.7143C12.5 10.5249 12.4342 10.3432 12.3169 10.2093C12.1997 10.0753 12.0408 10.0001 11.875 10.0001ZM16.875 8.57151C16.9986 8.57151 17.1195 8.52961 17.2222 8.45113C17.325 8.37264 17.4051 8.26109 17.4524 8.13057C17.4997 8.00005 17.5121 7.85643 17.488 7.71788C17.4639 7.57932 17.4044 7.45205 17.3169 7.35215C17.2295 7.25226 17.1182 7.18423 16.9969 7.15667C16.8757 7.12911 16.75 7.14325 16.6358 7.19732C16.5216 7.25138 16.424 7.34293 16.3553 7.46039C16.2867 7.57786 16.25 7.71595 16.25 7.85723C16.25 8.04666 16.3158 8.22834 16.4331 8.3623C16.5503 8.49625 16.7092 8.57151 16.875 8.57151ZM15 9.28579C15 9.42706 15.0367 9.56516 15.1053 9.68262C15.174 9.80008 15.2716 9.89163 15.3858 9.9457C15.5 9.99976 15.6257 10.0139 15.7469 9.98634C15.8682 9.95878 15.9795 9.89075 16.0669 9.79086C16.1544 9.69097 16.2139 9.56369 16.238 9.42514C16.2621 9.28658 16.2497 9.14296 16.2024 9.01244C16.1551 8.88193 16.075 8.77037 15.9722 8.69188C15.8695 8.6134 15.7486 8.57151 15.625 8.57151C15.4592 8.57151 15.3003 8.64676 15.1831 8.78071C15.0658 8.91467 15 9.09635 15 9.28579ZM14.375 7.14294C14.2514 7.14294 14.1305 7.18484 14.0278 7.26332C13.925 7.34181 13.8449 7.45336 13.7976 7.58388C13.7503 7.7144 13.7379 7.85802 13.762 7.99657C13.7861 8.13513 13.8456 8.2624 13.9331 8.3623C14.0205 8.46219 14.1318 8.53022 14.2531 8.55778C14.3743 8.58534 14.5 8.5712 14.6142 8.51713C14.7284 8.46307 14.826 8.37152 14.8947 8.25406C14.9633 8.1366 15 7.9985 15 7.85723C15 7.66779 14.9342 7.48611 14.8169 7.35215C14.6997 7.2182 14.5408 7.14294 14.375 7.14294ZM18.125 8.57151C18.0014 8.57151 17.8805 8.6134 17.7778 8.69188C17.675 8.77037 17.5949 8.88193 17.5476 9.01244C17.5003 9.14296 17.4879 9.28658 17.512 9.42514C17.5361 9.56369 17.5956 9.69097 17.6831 9.79086C17.7705 9.89075 17.8818 9.95878 18.0031 9.98634C18.1243 10.0139 18.25 9.99976 18.3642 9.9457C18.4784 9.89163 18.576 9.80008 18.6447 9.68262C18.7133 9.56516 18.75 9.42706 18.75 9.28579C18.75 9.09635 18.6842 8.91467 18.5669 8.78071C18.4497 8.64676 18.2908 8.57151 18.125 8.57151ZM19.375 7.14294C19.2514 7.14294 19.1305 7.18484 19.0278 7.26332C18.925 7.34181 18.8449 7.45336 18.7976 7.58388C18.7503 7.7144 18.7379 7.85802 18.762 7.99657C18.7861 8.13513 18.8456 8.2624 18.9331 8.3623C19.0205 8.46219 19.1318 8.53022 19.2531 8.55778C19.3743 8.58534 19.5 8.5712 19.6142 8.51713C19.7284 8.46307 19.826 8.37152 19.8947 8.25406C19.9633 8.1366 20 7.9985 20 7.85723C20 7.66779 19.9342 7.48611 19.8169 7.35215C19.6997 7.2182 19.5408 7.14294 19.375 7.14294ZM16.875 10.0001C16.7514 10.0001 16.6305 10.042 16.5278 10.1204C16.425 10.1989 16.3449 10.3105 16.2976 10.441C16.2503 10.5715 16.2379 10.7151 16.262 10.8537C16.2861 10.9923 16.3456 11.1195 16.4331 11.2194C16.5205 11.3193 16.6318 11.3873 16.7531 11.4149C16.8743 11.4425 17 11.4283 17.1142 11.3743C17.2284 11.3202 17.326 11.2286 17.3947 11.1112C17.4633 10.9937 17.5 10.8556 17.5 10.7143C17.5 10.5249 17.4342 10.3432 17.3169 10.2093C17.1997 10.0753 17.0408 10.0001 16.875 10.0001ZM15.625 11.4286C15.5014 11.4286 15.3805 11.4705 15.2778 11.549C15.175 11.6275 15.0949 11.739 15.0476 11.8696C15.0003 12.0001 14.9879 12.1437 15.012 12.2823C15.0361 12.4208 15.0956 12.5481 15.1831 12.648C15.2705 12.7479 15.3818 12.8159 15.5031 12.8435C15.6243 12.871 15.75 12.8569 15.8642 12.8028C15.9784 12.7488 16.076 12.6572 16.1447 12.5397C16.2133 12.4223 16.25 12.2842 16.25 12.1429C16.25 11.9535 16.1842 11.7718 16.0669 11.6378C15.9497 11.5039 15.7908 11.4286 15.625 11.4286ZM13.125 14.2858C13.0014 14.2858 12.8805 14.3276 12.7778 14.4061C12.675 14.4846 12.5949 14.5962 12.5476 14.7267C12.5003 14.8572 12.4879 15.0008 12.512 15.1394C12.5361 15.2779 12.5956 15.4052 12.6831 15.5051C12.7705 15.605 12.8818 15.673 13.0031 15.7006C13.1243 15.7282 13.25 15.714 13.3642 15.6599C13.4784 15.6059 13.576 15.5143 13.6447 15.3969C13.7133 15.2794 13.75 15.1413 13.75 15C13.75 14.8106 13.6842 14.6289 13.5669 14.495C13.4497 14.361 13.2908 14.2858 13.125 14.2858ZM11.875 15.7143C11.7514 15.7143 11.6305 15.7562 11.5278 15.8347C11.425 15.9132 11.3449 16.0247 11.2976 16.1553C11.2503 16.2858 11.2379 16.4294 11.262 16.5679C11.2861 16.7065 11.3456 16.8338 11.4331 16.9337C11.5205 17.0336 11.6318 17.1016 11.7531 17.1292C11.8743 17.1567 12 17.1426 12.1142 17.0885C12.2284 17.0344 12.326 16.9429 12.3947 16.8254C12.4633 16.708 12.5 16.5699 12.5 16.4286C12.5 16.2392 12.4342 16.0575 12.3169 15.9235C12.1997 15.7896 12.0408 15.7143 11.875 15.7143ZM14.375 12.8572C14.2514 12.8572 14.1305 12.8991 14.0278 12.9776C13.925 13.0561 13.8449 13.1676 13.7976 13.2981C13.7503 13.4286 13.7379 13.5723 13.762 13.7108C13.7861 13.8494 13.8456 13.9767 13.9331 14.0765C14.0205 14.1764 14.1318 14.2445 14.2531 14.272C14.3743 14.2996 14.5 14.2854 14.6142 14.2314C14.7284 14.1773 14.826 14.0858 14.8947 13.9683C14.9633 13.8508 15 13.7127 15 13.5715C15 13.382 14.9342 13.2004 14.8169 13.0664C14.6997 12.9324 14.5408 12.8572 14.375 12.8572ZM15.2207 3.10949L14.7793 2.60458C14.7213 2.53824 14.6524 2.48561 14.5765 2.4497C14.5007 2.4138 14.4194 2.39532 14.3373 2.39532C14.2552 2.39532 14.1739 2.4138 14.0981 2.4497C14.0223 2.48561 13.9534 2.53824 13.8953 2.60458L13.6738 2.85726C12.8612 1.94188 11.766 1.42872 10.625 1.4287C9.87344 1.4287 9.17656 1.6653 8.55859 2.047L8.16797 1.60057C7.28148 0.582721 6.07847 0.00732224 4.82188 0.000135367C2.16758 -0.0221859 0 2.71931 0 5.75233V19.2857C0 19.4752 0.065848 19.6568 0.183058 19.7908C0.300269 19.9247 0.45924 20 0.625 20H1.875C2.04076 20 2.19973 19.9247 2.31694 19.7908C2.43415 19.6568 2.5 19.4752 2.5 19.2857V5.64295C2.5 4.29698 3.32031 3.04476 4.49219 2.87824C4.83938 2.82626 5.19239 2.86635 5.52385 2.9954C5.85531 3.12446 6.1563 3.33901 6.40352 3.62243L6.79414 4.06886C6.45703 4.77332 6.25 5.56974 6.25 6.42866C6.25019 7.73263 6.69918 8.98419 7.5 9.91302L7.27891 10.1661C7.16178 10.3001 7.09599 10.4817 7.09599 10.671C7.09599 10.8604 7.16178 11.042 7.27891 11.176L7.72031 11.6809C7.77835 11.7472 7.84726 11.7998 7.92309 11.8357C7.99893 11.8716 8.08022 11.8901 8.1623 11.8901C8.24439 11.8901 8.32568 11.8716 8.40152 11.8357C8.47735 11.7998 8.54626 11.7472 8.6043 11.6809L15.2207 4.11975C15.2788 4.05342 15.3248 3.97467 15.3562 3.888C15.3876 3.80133 15.4038 3.70843 15.4038 3.61462C15.4038 3.52081 15.3876 3.42791 15.3562 3.34124C15.3248 3.25457 15.2788 3.17582 15.2207 3.10949Z" fill="currentColor"/>
</svg>
