<svg width="360" height="400" viewBox="0 0 360 400" fill="none" xmlns="http://www.w3.org/2000/svg">
<path d="M0 0H360.327C360.327 0 406.841 110.249 360.327 164.865C285.814 252.359 0 76.2097 0 164.865C0 253.52 0 0 0 0Z" fill="#1D6156"/>
<path d="M-11 127H349.327C349.327 127 395.841 237.249 349.327 291.865C274.814 379.359 -11 203.21 -11 291.865C-11 380.52 -11 127 -11 127Z" fill="#1D6156"/>
<path d="M0 265H360.327C360.327 265 406.841 343.335 360.327 382.141C285.814 444.307 0 319.149 0 382.141C0 445.133 0 265 0 265Z" fill="#1D6156"/>
</svg>

