<svg width="20" height="20" viewBox="0 0 20 20" fill="none" xmlns="http://www.w3.org/2000/svg">
<path d="M4.16699 4.16667C4.16699 3.72464 4.34259 3.30072 4.65515 2.98816C4.96771 2.67559 5.39163 2.5 5.83366 2.5H14.167C14.609 2.5 15.0329 2.67559 15.3455 2.98816C15.6581 3.30072 15.8337 3.72464 15.8337 4.16667V15.8333C15.8337 16.2754 15.6581 16.6993 15.3455 17.0118C15.0329 17.3244 14.609 17.5 14.167 17.5H5.83366C5.39163 17.5 4.96771 17.3244 4.65515 17.0118C4.34259 16.6993 4.16699 16.2754 4.16699 15.8333V4.16667Z" stroke="#8A93A6" stroke-width="2" stroke-linecap="round" stroke-linejoin="round"/>
<path d="M6.66699 11.6666C6.66699 12.5506 7.01818 13.3985 7.6433 14.0236C8.26842 14.6487 9.11627 14.9999 10.0003 14.9999C10.8844 14.9999 11.7322 14.6487 12.3573 14.0236C12.9825 13.3985 13.3337 12.5506 13.3337 11.6666C13.3337 10.7825 12.9825 9.93468 12.3573 9.30956C11.7322 8.68444 10.8844 8.33325 10.0003 8.33325C9.11627 8.33325 8.26842 8.68444 7.6433 9.30956C7.01818 9.93468 6.66699 10.7825 6.66699 11.6666Z" stroke="#8A93A6" stroke-width="2" stroke-linecap="round" stroke-linejoin="round"/>
<path d="M6.66699 5H6.67533" stroke="#8A93A6" stroke-width="2" stroke-linecap="round" stroke-linejoin="round"/>
<path d="M9.16699 5H9.17533" stroke="#8A93A6" stroke-width="2" stroke-linecap="round" stroke-linejoin="round"/>
<path d="M11.667 5H13.3337" stroke="#8A93A6" stroke-width="2" stroke-linecap="round" stroke-linejoin="round"/>
<path d="M6.66699 11.6666C7.77783 11.1108 8.88949 11.1108 10.0003 11.6666C11.1112 12.2225 12.2228 12.2225 13.3337 11.6666" stroke="#8A93A6" stroke-width="2" stroke-linecap="round" stroke-linejoin="round"/>
</svg>
